<svg xmlns="http://www.w3.org/2000/svg" fill="none" viewBox="0 0 120 120"><g clip-path="url(#html_svg__a)"><path fill="#E14E1D" d="M91.875 0h-63.75C12.592 0 0 12.592 0 28.125v63.75C0 107.408 12.592 120 28.125 120h63.75C107.408 120 120 107.408 120 91.875v-63.75C120 12.592 107.408 0 91.875 0"></path><path fill="#fff" d="m22.5 17.813 4.036 45.278H78.43L76.69 82.51l-16.71 4.518-16.677-4.512-1.115-12.47h-15.03l2.15 24.039 30.669 8.518 30.708-8.518 4.117-45.966H40.23l-1.37-15.333h57.299L97.5 17.813z"></path><path fill="#EBEBEB" d="M60 17.813H22.5l4.036 45.278H60V48.12H40.23l-1.37-15.333H60zM60 87.021l-.019.007-16.678-4.511-1.115-12.47H27.16l2.15 24.038 30.668 8.518.023-.007z"></path></g><defs><clipPath id="html_svg__a"><path fill="#fff" d="M0 0h120v120H0z"></path></clipPath></defs></svg>