<svg xmlns="http://www.w3.org/2000/svg" fill="none" viewBox="0 0 120 120"><g clip-path="url(#react_svg__a)"><path fill="#242938" d="M91.875 0h-63.75C12.592 0 0 12.592 0 28.125v63.75C0 107.408 12.592 120 28.125 120h63.75C107.408 120 120 107.408 120 91.875v-63.75C120 12.592 107.408 0 91.875 0"></path><path fill="#00D8FF" d="M60 68.883a8.745 8.745 0 1 0 .001-17.49 8.745 8.745 0 0 0 0 17.49"></path><path stroke="#00D8FF" stroke-width="8.911" d="M60 42.357c11.742 0 22.65 1.685 30.874 4.517 9.909 3.41 16.001 8.582 16.001 13.264 0 4.88-6.457 10.372-17.098 13.898-8.044 2.665-18.63 4.056-29.776 4.056-11.427 0-22.248-1.305-30.384-4.086-10.292-3.518-16.492-9.082-16.492-13.868 0-4.645 5.817-9.775 15.587-13.181 8.254-2.878 19.431-4.6 31.287-4.6z" clip-rule="evenodd"></path><path stroke="#00D8FF" stroke-width="8.911" d="M44.522 51.3C50.388 41.127 57.296 32.52 63.858 26.81c7.905-6.88 15.428-9.574 19.484-7.235 4.226 2.438 5.76 10.775 3.498 21.754-1.709 8.3-5.793 18.166-11.362 27.821-5.709 9.9-12.245 18.621-18.717 24.278-8.19 7.159-16.107 9.749-20.253 7.358-4.024-2.318-5.562-9.922-3.632-20.086 1.63-8.59 5.723-19.131 11.644-29.402z" clip-rule="evenodd"></path><path stroke="#00D8FF" stroke-width="8.911" d="M44.537 69.178c-5.883-10.16-9.887-20.445-11.56-28.981-2.011-10.285-.589-18.148 3.463-20.494 4.223-2.445 12.212.391 20.594 7.834 6.338 5.627 12.846 14.091 18.43 23.737 5.725 9.89 10.016 19.91 11.685 28.341 2.112 10.67.403 18.824-3.74 21.221-4.019 2.327-11.374-.136-19.216-6.885-6.626-5.702-13.716-14.512-19.656-24.773Z" clip-rule="evenodd"></path></g><defs><clipPath id="react_svg__a"><path fill="#fff" d="M0 0h120v120H0z"></path></clipPath></defs></svg>