<svg xmlns="http://www.w3.org/2000/svg" fill="none" viewBox="0 0 120 120"><g clip-path="url(#css_svg__a)"><path fill="#0277BD" d="M91.875 0h-63.75C12.592 0 0 12.592 0 28.125v63.75C0 107.408 12.592 120 28.125 120h63.75C107.408 120 120 107.408 120 91.875v-63.75C120 12.592 107.408 0 91.875 0"></path><path fill="#EBEBEB" d="m25.196 48.117 1.342 14.973h33.507V48.117zM60.045 17.813H22.5l1.361 14.973h36.183zM60.044 102.581V87.003l-.066.017-16.675-4.502-1.066-11.942h-15.030000000000001l2.098 23.51 30.67 8.514z"></path><path fill="#fff" d="M78.43 63.09 76.693 82.51l-16.699 4.507v15.577l30.695-8.506.225-2.53 3.519-39.418.365-4.021L97.5 17.812H59.993v14.973h21.098L79.73 48.119H59.993V63.09z"></path></g><defs><clipPath id="css_svg__a"><path fill="#fff" d="M0 0h120v120H0z"></path></clipPath></defs></svg>