<svg xmlns="http://www.w3.org/2000/svg" fill="none" viewBox="0 0 120 120"><g clip-path="url(#figma_svg__a)"><path fill="#242938" d="M91.875 0h-63.75C12.592 0 0 12.592 0 28.125v63.75C0 107.408 12.592 120 28.125 120h63.75C107.408 120 120 107.408 120 91.875v-63.75C120 12.592 107.408 0 91.875 0"></path><mask id="figma_svg__b" width="64" height="94" x="28" y="13" maskUnits="userSpaceOnUse" style="mask-type:luminance"><path fill="#fff" d="M91.106 13.125H28.594v93.75h62.512z"></path></mask><g mask="url(#figma_svg__b)"><path fill="#0ACF83" d="M44.225 106.875c8.625 0 15.625-7 15.625-15.625V75.625H44.225c-8.625 0-15.625 7-15.625 15.625s7 15.625 15.625 15.625"></path><path fill="#A259FF" d="M28.6 60c0-8.625 7-15.625 15.625-15.625H59.85v31.25H44.225c-8.625 0-15.625-7-15.625-15.625"></path><path fill="#F24E1E" d="M28.6 28.75c0-8.625 7-15.625 15.625-15.625H59.85v31.25H44.225c-8.625 0-15.625-7-15.625-15.625"></path><path fill="#FF7262" d="M59.85 13.125h15.625c8.625 0 15.625 7 15.625 15.625s-7 15.625-15.625 15.625H59.85z"></path><path fill="#1ABCFE" d="M91.1 60c0 8.625-7 15.625-15.625 15.625S59.85 68.625 59.85 60s7-15.625 15.625-15.625S91.1 51.375 91.1 60"></path></g></g><defs><clipPath id="figma_svg__a"><path fill="#fff" d="M0 0h120v120H0z"></path></clipPath></defs></svg>