<svg xmlns="http://www.w3.org/2000/svg" fill="none" viewBox="0 0 120 120"><g clip-path="url(#sass_svg__a)"><path fill="#CD6799" d="M91.875 0h-63.75C12.592 0 0 12.592 0 28.125v63.75C0 107.408 12.592 120 28.125 120h63.75C107.408 120 120 107.408 120 91.875v-63.75C120 12.592 107.408 0 91.875 0"></path><mask id="sass_svg__b" width="94" height="72" x="13" y="24" maskUnits="userSpaceOnUse" style="mask-type:luminance"><path fill="#fff" d="M106.875 24.844h-93.75v70.27h93.75z"></path></mask><g mask="url(#sass_svg__b)"><path fill="#fff" d="M93.8 65.233a19.4 19.4 0 0 0-8.489 1.968c-.873-1.728-1.746-3.268-1.9-4.398-.17-1.318-.376-2.122-.17-3.697.204-1.574 1.129-3.816 1.112-3.987s-.206-.975-2.088-.993c-1.883-.017-3.508.36-3.697.856a20.6 20.6 0 0 0-.787 2.79c-.325 1.711-3.765 7.82-5.733 11.021-.633-1.25-1.18-2.345-1.3-3.218-.172-1.317-.377-2.122-.172-3.696s1.13-3.817 1.112-3.988-.205-.975-2.088-.992c-1.882-.017-3.508.359-3.696.855-.188.497-.394 1.66-.787 2.79-.394 1.13-4.963 11.33-6.161 13.965a79 79 0 0 1-1.523 3.166s-.018.051-.069.137c-.325.633-.514.975-.514.975v.017c-.256.463-.53.89-.667.89-.103 0-.29-1.232.034-2.909.685-3.543 2.31-9.053 2.294-9.241 0-.103.308-1.061-1.061-1.558-1.335-.496-1.815.325-1.934.325-.12 0-.206.291-.206.291s1.49-6.195-2.84-6.195c-2.705 0-6.435 2.96-8.284 5.63-1.163.634-3.645 1.986-6.298 3.44-1.01.565-2.053 1.13-3.029 1.66-.068-.068-.137-.154-.205-.222-5.237-5.596-14.923-9.55-14.513-17.063.154-2.738 1.096-9.926 18.603-18.654 14.41-7.102 25.877-5.134 27.862-.77 2.84 6.23-6.144 17.798-21.033 19.476-5.682.633-8.66-1.558-9.413-2.379-.787-.856-.907-.907-1.198-.736-.48.257-.171 1.027 0 1.472.445 1.163 2.276 3.217 5.374 4.227 2.738.89 9.395 1.386 17.456-1.728 9.019-3.492 16.07-13.195 13.999-21.324-2.07-8.25-15.762-10.97-28.717-6.367-7.701 2.738-16.053 7.051-22.06 12.665-7.136 6.674-8.266 12.475-7.804 14.905 1.66 8.626 13.554 14.24 18.312 18.398-.24.137-.462.257-.65.36-2.38 1.18-11.45 5.92-13.708 10.935-2.568 5.682.41 9.755 2.378 10.303 6.11 1.694 12.39-1.352 15.762-6.384 3.372-5.031 2.961-11.568 1.404-14.563a.4.4 0 0 0-.069-.103c.616-.36 1.25-.736 1.865-1.095a92 92 0 0 1 3.44-1.934c-.581 1.591-1.01 3.49-1.215 6.23-.256 3.217 1.061 7.392 2.79 9.035.77.719 1.677.736 2.259.736 2.02 0 2.927-1.677 3.936-3.662 1.232-2.43 2.345-5.254 2.345-5.254s-1.387 7.633 2.378 7.633c1.37 0 2.756-1.78 3.372-2.687v.017s.034-.051.103-.171l.222-.36v-.034c.548-.958 1.78-3.132 3.611-6.743 2.362-4.655 4.638-10.473 4.638-10.473s.205 1.42.907 3.782c.41 1.386 1.267 2.91 1.951 4.38-.547.771-.89 1.199-.89 1.199l.017.017c-.445.582-.924 1.215-1.454 1.83-1.866 2.226-4.09 4.776-4.399 5.512-.36.873-.273 1.506.411 2.02.496.376 1.386.427 2.293.376 1.677-.12 2.859-.53 3.44-.788.907-.325 1.968-.821 2.96-1.557 1.832-1.352 2.945-3.286 2.842-5.836-.052-1.403-.514-2.806-1.078-4.124.171-.24.325-.48.496-.719 2.892-4.227 5.134-8.865 5.134-8.865s.205 1.42.907 3.782c.342 1.198 1.044 2.499 1.66 3.765-2.72 2.208-4.398 4.775-4.997 6.452-1.078 3.115-.24 4.518 1.352 4.843.719.155 1.745-.188 2.499-.513a11.4 11.4 0 0 0 3.166-1.626c1.83-1.352 3.594-3.234 3.491-5.784-.052-1.164-.36-2.31-.787-3.423 2.31-.958 5.288-1.489 9.087-1.044 8.147.959 9.755 6.041 9.447 8.18-.308 2.14-2.02 3.303-2.584 3.663s-.753.479-.702.736c.069.376.343.359.822.29.667-.12 4.278-1.728 4.432-5.664.257-5.031-4.535-10.525-13.006-10.474M30.957 86.42c-2.704 2.944-6.469 4.056-8.095 3.115-1.745-1.01-1.06-5.357 2.26-8.472 2.019-1.899 4.62-3.662 6.349-4.74.393-.24.975-.582 1.677-1.01.12-.068.188-.102.188-.102l.41-.257c1.216 4.45.052 8.369-2.789 11.466m19.681-13.383c-.941 2.294-2.909 8.163-4.107 7.838-1.027-.274-1.66-4.723-.205-9.121.736-2.208 2.293-4.844 3.2-5.87 1.472-1.644 3.097-2.191 3.491-1.523.496.872-1.797 7.238-2.379 8.676m16.241 7.77c-.393.205-.77.342-.94.24-.12-.069.17-.343.17-.343s2.037-2.19 2.841-3.183c.462-.582 1.01-1.267 1.592-2.037v.223c0 2.619-2.533 4.381-3.663 5.1m12.528-2.858c-.291-.206-.24-.89.736-3.03.376-.838 1.266-2.241 2.79-3.593.17.548.29 1.078.273 1.574-.017 3.303-2.379 4.535-3.8 5.049"></path></g></g><defs><clipPath id="sass_svg__a"><path fill="#fff" d="M0 0h120v120H0z"></path></clipPath></defs></svg>