<svg xmlns="http://www.w3.org/2000/svg" fill="none" viewBox="0 0 120 120"><g clip-path="url(#javascript_svg__a)"><path fill="#F0DB4F" d="M91.875 0h-63.75C12.592 0 0 12.592 0 28.125v63.75C0 107.408 12.592 120 28.125 120h63.75C107.408 120 120 107.408 120 91.875v-63.75C120 12.592 107.408 0 91.875 0"></path><path fill="#323330" d="m31.552 100.281 9.183-5.558c1.772 3.141 3.383 5.799 7.25 5.799 3.705 0 6.04-1.45 6.04-7.087V55.092h11.278v38.502c0 11.68-6.846 16.996-16.836 16.996-9.02 0-14.257-4.672-16.915-10.31M71.429 99.073l9.182-5.316c2.417 3.947 5.558 6.847 11.116 6.847 4.673 0 7.652-2.337 7.652-5.559 0-3.866-3.06-5.236-8.216-7.49l-2.818-1.21C80.208 82.884 74.81 78.534 74.81 69.35c0-8.458 6.445-14.903 16.514-14.903 7.169 0 12.324 2.498 16.029 9.022l-8.78 5.639c-1.934-3.464-4.027-4.833-7.25-4.833-3.302 0-5.396 2.094-5.396 4.833 0 3.383 2.094 4.752 6.927 6.847l2.819 1.208c9.585 4.109 14.983 8.297 14.983 17.721 0 10.15-7.975 15.708-18.688 15.708-10.471 0-17.238-4.994-20.54-11.52"></path></g><defs><clipPath id="javascript_svg__a"><path fill="#fff" d="M0 0h120v120H0z"></path></clipPath></defs></svg>