<svg xmlns="http://www.w3.org/2000/svg" fill="none" viewBox="0 0 120 120"><g clip-path="url(#styled-components_svg__a)"><path fill="url(#styled-components_svg__b)" d="M91.875 0h-63.75C12.592 0 0 12.592 0 28.125v63.75C0 107.408 12.592 120 28.125 120h63.75C107.408 120 120 107.408 120 91.875v-63.75C120 12.592 107.408 0 91.875 0"></path><path fill="#fff" d="m5.385 60.506 23.58 9.555v6.688L1.05 63.816v-3.924zm23.58-7.849L5.419 62.348l-4.368.478v-3.958l27.914-12.9zM113.142 61.87 88.88 52.419V45.9l29.142 12.9v3.992zM88.88 70.198l24.331-9.657 4.811-.717v3.959L88.88 76.715z"></path><path fill="#B956A6" fill-rule="evenodd" d="M82.536 28.64c-.135 2.14-1.099 4.376-.83 6.456 1.684 2.979 5.39 3.454 8.449 3.658 2.119.378 2.092-1.024 1.95-2.6l.026-7.558c-3.199.011-6.398-.032-9.595.044m-25.219 5.986c-5.207.884-10.485 3.372-14.817 6.368-3.486 2.713 2.993 5.343 5.344 5.782 4.73.058 8.925-3.132 12.032-6.443 1.014-1.393 2.28-3.524 1.006-5.138-.973-.843-2.388-.639-3.565-.569m11.08 7.573c-4.281.815-8.355 2.58-11.959 5.037-2.642.83-4.82 3.73-1.546 5.184 3.438 2.74 7.423 2.068 10.59.219 2.9-1.724 6.032-3.85 7.373-7.095 1.267-3.555-2.002-3.687-4.458-3.345m12.145 13.773c-.798 3.33-4.151 4.844-5.935 7.483-1.459 1.924-.783 4.192.877 5.707.809 1.676 2.227 2.613 3.747 1.157 3.915-2.662 4.997-7.846 4.835-12.338.289-1.855-1.84-.178-3.524-2.009m-14.899 6.255c-5.199.89-10.398 3.422-14.732 6.413-3.364 2.71 2.972 5.24 5.342 5.641 4.817.007 9.114-3.097 12.16-6.623 1.06-1.4 2.344-4.12.246-5.233-.938-.397-2.027-.28-3.016-.198" clip-rule="evenodd"></path><path fill="#FCCC44" fill-rule="evenodd" d="M42.5 40.995c-3.998 1.6-7.855 3.542-11.664 5.576-.708 2.632-.14 5.892-.324 8.778-.014 11.867-.007 23.734-.01 35.6h8.823c1.781-1.677 4.013-2.904 5.947-4.427 7.45-5.343 14.899-10.707 22.34-16.036.547.246.196-3.22-1.005-.812-2.846 2.678-6.623 4.88-10.62 4.665-2.27-.746-5.927-2.012-5.95-4.792 1.597-1.88-2.946.984-4.19 1.394-4.041 1.94-7.987 4.108-12.037 6.012.973-1.045 2.794-2.02 4.085-3.056 9.221-6.62 18.44-13.266 27.684-19.88 1.779-1.248 3.496-2.61 5.329-3.777.167.647.481-3.09-.882-.79-2.779 2.755-6.527 4.805-10.48 4.833-2.223-.675-6.958-2.289-5.904-5.16.514-1.007-4.776 2.148-2.439.37 2.488-1.819 4.996-3.604 7.502-5.403 1.266-.096.997-4.798-.723-1.765-2.89 2.54-6.687 4.863-10.667 4.312-2.236-.644-4.919-1.89-5.731-4.228-.27-.562 1.505-1.437.916-1.414m16.565 2.903c-.221.634.402-.232 0 0" clip-rule="evenodd"></path><path fill="#62777F" fill-rule="evenodd" d="M84.328 37.851c-1.248 5.961-2.613 12.2-3.786 18.121 3.371 4.249 3.698-2.684 4.288-4.644.953-4.098 2.081-7.192 2.2-11.434.254-1.447-1.448-2.324-2.702-2.043m3.868 4.675c-.106.611.154.115 0 0m-3.933 13.366c.162-.35.162.35 0 0" clip-rule="evenodd"></path><path fill="#4E5E67" fill-rule="evenodd" d="M86.539 38.525c1.052 5.908-2.433 13.084-3.572 18.654 2.587-1.904 4.587-10.543 5.097-13.925.132-.386.294-1.36.33-1.395.162-.82 1.678-2.211 1.76-3.106.883-.623-4.335-.723-3.615-.228m-2.146 17.366c-.162-.35-.162.35 0 0" clip-rule="evenodd"></path><path fill="#DC9624" fill-rule="evenodd" d="M42.587 41.091c-1.458 1.46-.911 1.104.175-.11zm15.779.724c-1.69 2.539-7.784 4.662-8.551 4.827 3.665-.687 7.082-2.967 9.486-5.639-.382.17-.609.57-.935.812m-16.781.824c.91 2.19 4.223 3.645 5.832 3.985-2.197-.708-4.783-1.964-5.832-3.985m17.349 1.267c-.46.543-2.098 1.355-2.961 2.15-1.852 1.367-3.768 2.637-5.6 4.037 1.167-.05 4.583-2.602 2.832-.013 1.484 2.554 4.715 4.33 7.66 4.168 3.892-.61 7.48-2.762 10.058-5.753-3.13 3.098-7.27 6.013-11.85 5.612-2.216-.512-8.273-3.641-4.222-5.834 1.43-1.176 3.892-1.791 4.171-3.856-.058-.258.422-.51-.088-.511m-11.09 2.87c1.474-.193 1.474.192 0 0m22.97 3.527C64.964 54.38 59.2 58.613 53.4 62.762c-6.572 4.703-13.116 9.424-19.686 14.123 2.47-.832 4.945-2.459 7.4-3.583 3.378-1.787 6.942-3.2 10.104-5.372 6.253-3.68 12.865-7.187 17.674-12.818 1.05-1.23 2.102-3.212 2.148-4.545-.15.043-.036-.533-.227-.264M50.91 68.64c-1.053 1.19-1.48 2.04-.388.527-.02.175.886-.939.388-.527m16.01.57c-2.772 2.922-6.872 5.03-10.72 5.173 4.448.032 8.46-2.608 11.474-5.722-.198-.24-.599.557-.754.548m.847.918c-9.313 6.78-18.949 13.813-28.294 20.568 1.473.462 4.678.679 6.14-1.206 3.114-2.148 6.613-3.727 9.736-5.904 4.522-2.934 9.363-6.142 11.932-11.073.122-.662 1.03-1.852.486-2.385m-17.725.43c.433 1.825 5.835 3.919 5.25 3.518-1.993-.699-3.969-1.787-5.25-3.518" clip-rule="evenodd"></path></g><defs><linearGradient id="styled-components_svg__b" x1="0" x2="120" y1="120" y2="0" gradientUnits="userSpaceOnUse"><stop stop-color="#DB7093"></stop><stop offset="1" stop-color="#F3B661"></stop></linearGradient><clipPath id="styled-components_svg__a"><path fill="#fff" d="M0 0h120v120H0z"></path></clipPath></defs></svg>