<svg xmlns="http://www.w3.org/2000/svg" fill="none" viewBox="0 0 120 120"><g clip-path="url(#tailwind-css_svg__a)"><path fill="#242938" d="M91.875 0h-63.75C12.592 0 0 12.592 0 28.125v63.75C0 107.408 12.592 120 28.125 120h63.75C107.408 120 120 107.408 120 91.875v-63.75C120 12.592 107.408 0 91.875 0"></path><path fill="url(#tailwind-css_svg__b)" fill-rule="evenodd" d="M38.906 51.563Q43.126 34.686 60 34.686c16.875 0 18.984 12.657 27.422 14.766q8.438 2.11 14.766-6.328Q97.968 60 81.094 60c-16.875 0-18.985-12.656-27.422-14.766q-8.438-2.11-14.766 6.328M17.813 76.875Q22.032 60 38.906 60c16.875 0 18.985 12.656 27.422 14.766q8.438 2.11 14.766-6.329Q76.876 85.314 60 85.314c-16.875 0-18.984-12.657-27.422-14.766q-8.437-2.11-14.766 6.328" clip-rule="evenodd"></path></g><defs><linearGradient id="tailwind-css_svg__b" x1="40.547" x2="76.641" y1="34.688" y2="86.953" gradientUnits="userSpaceOnUse"><stop stop-color="#32B1C1"></stop><stop offset="1" stop-color="#14C6B7"></stop></linearGradient><clipPath id="tailwind-css_svg__a"><path fill="#fff" d="M0 0h120v120H0z"></path></clipPath></defs></svg>