<svg xmlns="http://www.w3.org/2000/svg" fill="none" viewBox="0 0 120 120"><g clip-path="url(#typescript_svg__a)"><path fill="#007ACC" d="M91.875 0h-63.75C12.592 0 0 12.592 0 28.125v63.75C0 107.408 12.592 120 28.125 120h63.75C107.408 120 120 107.408 120 91.875v-63.75C120 12.592 107.408 0 91.875 0"></path><path fill="#fff" d="m26.536 60.399-.038 4.914h15.62v44.381h11.047V65.313h15.619v-4.82c0-2.666-.057-4.894-.134-4.952-.057-.075-9.562-.114-21.085-.095l-20.972.058zM96.828 55.363c3.048.762 5.372 2.114 7.505 4.324 1.105 1.181 2.743 3.334 2.876 3.848.038.152-5.181 3.657-8.342 5.619-.115.076-.572-.42-1.087-1.181-1.542-2.248-3.161-3.22-5.638-3.39-3.638-.249-5.98 1.656-5.961 4.837 0 .934.133 1.486.514 2.248.8 1.657 2.286 2.647 6.953 4.666 8.59 3.696 12.266 6.134 14.552 9.6 2.552 3.867 3.124 10.039 1.39 14.629-1.904 4.99-6.628 8.381-13.276 9.505-2.057.362-6.933.305-9.143-.095-4.819-.857-9.39-3.238-12.21-6.362-1.104-1.219-3.257-4.4-3.123-4.629.057-.076.552-.38 1.104-.704.534-.305 2.553-1.467 4.458-2.572l3.447-2 .724 1.067c1.01 1.542 3.219 3.657 4.553 4.361 3.828 2.02 9.085 1.734 11.676-.59 1.105-1.01 1.562-2.057 1.562-3.6 0-1.39-.172-2-.896-3.048-.933-1.333-2.838-2.457-8.247-4.8-6.19-2.666-8.857-4.323-11.295-6.952-1.41-1.523-2.744-3.962-3.296-6-.457-1.695-.571-5.943-.21-7.657 1.277-5.98 5.791-10.152 12.305-11.39 2.115-.4 7.029-.248 9.105.266"></path></g><defs><clipPath id="typescript_svg__a"><path fill="#fff" d="M0 0h120v120H0z"></path></clipPath></defs></svg>